<svg width="122" height="85" viewBox="0 0 122 85" fill="none" xmlns="http://www.w3.org/2000/svg">
<g id="&#236;&#186;&#144;&#236;&#138;&#164;&#237;&#141;&#188;&#236;&#186;&#144;&#235;&#166;&#173;&#237;&#132;&#176;_&#234;&#184;&#176;&#235;&#140;&#128;&#237;&#143;&#137;_&#236;&#185;&#180;&#237;&#130;&#164;">
<g id="Group 33890">
<path id="Subtract" fill-rule="evenodd" clip-rule="evenodd" d="M15.3984 34.5429C15.3984 22.2853 25.3351 12.3486 37.5927 12.3486H86.6055C98.863 12.3486 108.8 22.2853 108.8 34.5429V51.1469C108.8 63.4044 98.863 73.3411 86.6055 73.3411H37.5927C25.3351 73.3411 15.3984 63.4044 15.3984 51.1469V34.5429ZM32.5299 52.2441H40.753V54.2285H44.8654V56.0814H79.332V54.2285H83.4445V52.2444H91.6677V60.4675H87.5551V62.4516H83.4444V64.3045H40.7543V62.4516H36.6423V60.4672H32.5299V52.2441ZM36.679 21.0849C29.7591 21.0849 24.1494 26.6945 24.1494 33.6144C24.1494 40.5343 29.7591 46.144 36.679 46.144H87.5201C94.44 46.144 100.05 40.5343 100.05 33.6144C100.05 26.6945 94.44 21.0849 87.5201 21.0849H36.679Z" fill="#5D5E53"/>
<g id="Group 38">
<rect id="Rectangle 2977" x="33.3203" y="29.458" width="8.31494" height="8.31494" fill="#5D5E53"/>
<rect id="Rectangle 2978" x="82.5625" y="29.458" width="8.31494" height="8.31494" fill="#5D5E53"/>
</g>
</g>
</g>
</svg>
