<svg width="122" height="73" viewBox="0 0 122 73" fill="none" xmlns="http://www.w3.org/2000/svg">
<path fill-rule="evenodd" clip-rule="evenodd" d="M15.3047 28.5429C15.3047 16.2853 25.2414 6.34863 37.4989 6.34863H86.5117C98.7692 6.34863 108.706 16.2853 108.706 28.5429V45.1469C108.706 57.4044 98.7692 67.3411 86.5117 67.3411H37.4989C25.2414 67.3411 15.3047 57.4044 15.3047 45.1469V28.5429ZM32.4372 46.2406H40.6604V48.222H44.7727V50.0776H79.2378V48.222H83.3502V46.2406H91.5733V54.4638H87.4609V56.4451H83.3517V58.3007H40.6616V56.4451H36.5496V54.4637H32.4372V46.2406ZM36.5848 15.0849C29.6649 15.0849 24.0553 20.6945 24.0553 27.6144C24.0553 34.5343 29.665 40.144 36.5848 40.144H87.4259C94.3458 40.144 99.9555 34.5343 99.9555 27.6144C99.9555 20.6945 94.3458 15.0849 87.4259 15.0849H36.5848Z" fill="white"/>
<path d="M38.6938 20.1445L40.3002 25.0884H45.4985L41.293 28.1438L42.8993 33.0877L38.6938 30.0322L34.4884 33.0877L36.0947 28.1438L31.8892 25.0884H37.0875L38.6938 20.1445Z" fill="white"/>
<path d="M85.3188 20.145L86.9252 25.0889H92.1235L87.918 28.1443L89.5243 33.0882L85.3188 30.0327L81.1134 33.0882L82.7197 28.1443L78.5142 25.0889H83.7125L85.3188 20.145Z" fill="white"/>
</svg>
