<svg width="122" height="73" viewBox="0 0 122 73" fill="none" xmlns="http://www.w3.org/2000/svg">
<path d="M39.7496 21.1294L34.5234 28.6783L37.8683 28.3348L36.9602 34.5553L42.7267 25.5197L39.7496 26.0652V21.1294Z" fill="#CCCCAB"/>
<path d="M86.4585 21.1294L81.2324 28.6783L84.5773 28.3348L83.6692 34.5553L89.4357 25.5197L86.4585 26.0652V21.1294Z" fill="#CCCCAB"/>
<path fill-rule="evenodd" clip-rule="evenodd" d="M15.209 28.5429C15.209 16.2853 25.1457 6.34863 37.4032 6.34863H86.416C98.6735 6.34863 108.61 16.2853 108.61 28.5429V45.1469C108.61 57.4044 98.6735 67.3411 86.416 67.3411H37.4032C25.1457 67.3411 15.209 57.4044 15.209 45.1469V28.5429ZM32.3415 46.2441H40.5646V48.2285H44.6736V50.0814H79.142V48.2285H83.2527V46.2444H91.4758V54.4675H87.3651V56.4516H83.2525V58.3045H40.5625V56.4516H36.4505V54.4672H32.3415V46.2441ZM36.4899 15.0849C29.57 15.0849 23.9603 20.6945 23.9603 27.6144C23.9603 34.5343 29.57 40.144 36.4899 40.144H87.331C94.2508 40.144 99.8605 34.5343 99.8605 27.6144C99.8605 20.6945 94.2508 15.0849 87.3309 15.0849H36.4899Z" fill="#CCCCAB"/>
</svg>
