<svg width="123" height="85" viewBox="0 0 123 85" fill="none" xmlns="http://www.w3.org/2000/svg">
<g id="&#236;&#186;&#144;&#236;&#138;&#164;&#237;&#141;&#188;&#236;&#186;&#144;&#235;&#166;&#173;&#237;&#132;&#176;_&#234;&#184;&#176;&#235;&#140;&#128;&#237;&#143;&#137;_&#236;&#152;&#164;&#235;&#160;&#140;&#236;&#167;&#128;">
<g id="Group 33890">
<path id="Subtract" fill-rule="evenodd" clip-rule="evenodd" d="M16.1152 34.5429C16.1152 22.2853 26.0519 12.3486 38.3095 12.3486H87.3222C99.5797 12.3486 109.516 22.2853 109.516 34.5429V51.1468C109.516 63.4044 99.5797 73.3411 87.3222 73.3411H38.3095C26.0519 73.3411 16.1152 63.4044 16.1152 51.1468V34.5429ZM84.1598 52.2414H92.3829V60.4645H88.2719V62.4486H84.1596V64.3015H41.4695V62.4486H37.3592V60.4646H33.2468V52.2415H41.4699V54.2255H45.5823V56.0784H80.0488V54.2255H84.1598V52.2414ZM37.3931 21.0849C30.4732 21.0849 24.8636 26.6945 24.8636 33.6144C24.8636 40.5343 30.4732 46.144 37.3931 46.144H88.2341C95.154 46.144 100.764 40.5343 100.764 33.6144C100.764 26.6945 95.154 21.0849 88.2341 21.0849H37.3931Z" fill="#FF8047"/>
<rect id="Rectangle 2977" x="34.0332" y="29.4595" width="8.31493" height="8.31493" fill="#FF8047"/>
<path id="Vector 3379" d="M87.7341 28.9946L83.3398 33.8446L87.7341 38.2385H91.672L87.2366 33.8446L91.672 28.9946H87.7341Z" fill="#FF8047"/>
</g>
</g>
</svg>
