<svg width="35" height="23" viewBox="0 0 35 23" fill="none" xmlns="http://www.w3.org/2000/svg">
<g id="Group 40">
<path id="Subtract" fill-rule="evenodd" clip-rule="evenodd" d="M0.191406 8.76816C0.191406 4.32071 3.79678 0.715332 8.24424 0.715332H26.0277C30.4752 0.715332 34.0806 4.32071 34.0806 8.76816V14.7927C34.0806 19.2401 30.4752 22.8455 26.0277 22.8455H8.24424C3.79678 22.8455 0.191406 19.2401 0.191406 14.7927V8.76816ZM6.40771 15.1899H9.39137V15.9087H10.8836V16.5826H23.3889V15.9087H24.8808V15.19H27.8645V18.1736H26.3726V18.8924H24.8809V19.5662H9.39135V18.8924H7.89994V18.1736H6.40771V15.1899ZM7.9124 3.88721C5.40161 3.88721 3.36621 5.92261 3.36621 8.4334C3.36621 10.9442 5.40161 12.9796 7.9124 12.9796H26.3594C28.8702 12.9796 30.9056 10.9442 30.9056 8.4334C30.9056 5.92261 28.8702 3.88721 26.3594 3.88721H7.9124Z" fill="white"/>
<g id="Group 38">
<rect id="Rectangle 2977" x="6.69336" y="6.92432" width="3.01697" height="3.01697" fill="white"/>
<rect id="Rectangle 2978" x="24.5605" y="6.92432" width="3.01697" height="3.01697" fill="white"/>
</g>
</g>
</svg>
