<svg width="38" height="9" viewBox="0 0 38 9" fill="none" xmlns="http://www.w3.org/2000/svg">
<g id="EVENT">
<path id="Vector" d="M33.0465 1.86995H30.5625V0.501953H37.0905V1.86995H34.6065V8.66195H33.0465V1.86995Z" fill="#00AAD2"/>
<path id="Vector_2" d="M22.3691 0.501953H23.7371L28.1771 6.06995V0.501953H29.7371V8.66195H28.3811L23.9291 3.09395V8.66195H22.3691V0.501953Z" fill="#00AAD2"/>
<path id="Vector_3" d="M15.4844 0.501953H21.2204V1.86995H17.0444V3.86195H20.6444V5.21795H17.0444V7.29395H21.2204V8.66195H15.4844V0.501953Z" fill="#00AAD2"/>
<path id="Vector_4" d="M6.80859 0.501953H8.42859L10.8166 6.93395L13.2046 0.501953H14.8246L11.7286 8.66195H9.90459L6.80859 0.501953Z" fill="#00AAD2"/>
<path id="Vector_5" d="M0.8125 0.501953H6.5485V1.86995H2.3725V3.86195H5.9725V5.21795H2.3725V7.29395H6.5485V8.66195H0.8125V0.501953Z" fill="#00AAD2"/>
</g>
</svg>
