<svg width="53" height="28" viewBox="0 0 53 28" fill="none" xmlns="http://www.w3.org/2000/svg">
<path id="Vector" fill-rule="evenodd" clip-rule="evenodd" d="M52.7593 14.0916C52.7593 21.3307 41.0104 27.2642 26.5916 27.2642C12.1133 27.2642 0.423828 21.3307 0.423828 14.0916C0.423828 6.79292 12.1133 0.859375 26.5916 0.859375C41.0104 0.859375 52.7593 6.79292 52.7593 14.0916ZM25.3455 12.2519C27.6006 11.8365 29.7959 11.0655 31.5169 10.4127C37.0944 8.45434 39.7049 6.43729 40.2392 5.96232C40.9513 5.30953 40.4174 5.07237 39.7649 4.83478C35.9668 3.70724 30.2113 2.87642 26.5326 3.05467C23.8622 3.1138 22.379 6.02188 21.7856 7.26789C18.9966 13.1421 23.9806 12.5486 25.3455 12.2519ZM8.25639 20.5592C8.37485 20.3219 12.7657 10.0564 17.9282 4.47893C18.5805 3.88549 17.8688 3.7668 17.038 3.94461C8.49398 5.60647 2.56 9.52297 2.56 14.0327C2.56 16.5249 4.33989 18.8391 7.30688 20.6786C7.72229 20.9157 8.1377 20.7375 8.25639 20.5592ZM27.7784 15.8721C25.5234 16.2876 23.3278 17.0588 21.6069 17.7114C16.0294 19.6695 13.4185 21.7463 12.8846 22.2211C12.1724 22.8145 12.7063 23.111 13.3591 23.2893C17.1567 24.4164 22.9124 25.247 26.5911 25.1285C29.2612 25.0103 30.745 22.1022 31.3976 20.8562C34.1274 14.9815 29.1431 15.6343 27.7782 15.8719L27.7784 15.8721ZM50.5638 14.0918C50.5638 11.5996 48.8428 9.34472 45.8169 7.50527C45.4017 7.20855 45.0456 7.38658 44.8674 7.62396C44.7491 7.80155 40.3581 18.0672 35.1956 23.6447C34.6019 24.2975 35.2547 24.416 36.0857 24.2381C44.6302 22.5174 50.5638 18.6015 50.5638 14.0918Z" fill="white"/>
</svg>
