<svg width="359" height="191" viewBox="0 0 359 191" fill="none" xmlns="http://www.w3.org/2000/svg">
<path fill-rule="evenodd" clip-rule="evenodd" d="M23.3235 0.271484C21.0037 0.271484 19.123 2.15211 19.123 4.47197V31.6845C19.123 34.0044 21.0037 35.885 23.3235 35.885H57.9477L63.9157 46.6438C64.4288 47.5688 65.743 47.6126 66.3166 46.7237L73.3106 35.885H354.754C357.074 35.885 358.955 34.0044 358.955 31.6845V4.47197C358.955 2.15211 357.074 0.271484 354.754 0.271484H23.3235Z" fill="#FF8047"/>
<path d="M36.6311 9.92141H39.0911V18.5014H41.0511C41.6911 18.5014 42.2911 18.4614 42.8511 18.3814C43.4111 18.3014 43.9244 18.1481 44.3911 17.9214V8.72141H46.7911V14.1814H48.6911V8.42141H51.1311V25.7014H48.6911V16.3814H46.7911V25.2014H44.3911V19.6614C43.2444 20.3414 41.7711 20.6814 39.9711 20.6814H37.6111C36.9578 20.6814 36.6311 20.4081 36.6311 19.8614V9.92141ZM53.0581 16.7814H56.8981V14.4414C56.4581 14.1614 56.1181 13.8214 55.8781 13.4214C55.6381 13.0214 55.5181 12.5681 55.5181 12.0614C55.5181 11.0081 55.9915 10.1814 56.9381 9.58141C57.8981 8.96807 59.2448 8.66141 60.9781 8.66141C62.7115 8.66141 64.0515 8.96807 64.9981 9.58141C65.9581 10.1814 66.4381 11.0081 66.4381 12.0614C66.4381 12.5681 66.3181 13.0214 66.0781 13.4214C65.8381 13.8214 65.4981 14.1614 65.0581 14.4414V16.7814H68.8981V18.8614H53.0581V16.7814ZM55.4381 23.2214C55.4381 22.6881 55.5648 22.2147 55.8181 21.8014C56.0715 21.3881 56.4315 21.0347 56.8981 20.7414C57.3781 20.4481 57.9581 20.2281 58.6381 20.0814C59.3315 19.9214 60.1115 19.8414 60.9781 19.8414C61.8448 19.8414 62.6181 19.9214 63.2981 20.0814C63.9915 20.2281 64.5715 20.4481 65.0381 20.7414C65.5181 21.0347 65.8848 21.3881 66.1381 21.8014C66.3915 22.2147 66.5181 22.6881 66.5181 23.2214C66.5181 24.2881 66.0248 25.1214 65.0381 25.7214C64.0648 26.3214 62.7115 26.6214 60.9781 26.6214C59.2448 26.6214 57.8848 26.3214 56.8981 25.7214C55.9248 25.1214 55.4381 24.2881 55.4381 23.2214ZM57.9981 23.2214C57.9981 23.6747 58.2515 24.0081 58.7581 24.2214C59.2781 24.4481 60.0181 24.5614 60.9781 24.5614C61.9381 24.5614 62.6715 24.4481 63.1781 24.2214C63.6981 24.0081 63.9581 23.6747 63.9581 23.2214C63.9581 22.7681 63.6981 22.4347 63.1781 22.2214C62.6715 21.9947 61.9381 21.8814 60.9781 21.8814C60.0181 21.8814 59.2781 21.9947 58.7581 22.2214C58.2515 22.4347 57.9981 22.7681 57.9981 23.2214ZM58.0781 12.0614C58.0781 12.5014 58.3248 12.8281 58.8181 13.0414C59.3248 13.2547 60.0448 13.3614 60.9781 13.3614C61.9115 13.3614 62.6248 13.2547 63.1181 13.0414C63.6248 12.8281 63.8781 12.5014 63.8781 12.0614C63.8781 11.6214 63.6248 11.2947 63.1181 11.0814C62.6248 10.8681 61.9115 10.7614 60.9781 10.7614C60.0448 10.7614 59.3248 10.8681 58.8181 11.0814C58.3248 11.2947 58.0781 11.6214 58.0781 12.0614ZM59.4181 16.7814H62.5381V15.2814C62.2981 15.3081 62.0448 15.3347 61.7781 15.3614C61.5115 15.3747 61.2448 15.3814 60.9781 15.3814C60.6981 15.3814 60.4248 15.3747 60.1581 15.3614C59.9048 15.3347 59.6581 15.3081 59.4181 15.2814V16.7814ZM72.1852 18.9014H83.3852V23.5414H74.7452V24.6014H83.8252V26.5014H73.1452C72.8385 26.5014 72.5985 26.4347 72.4252 26.3014C72.2652 26.1681 72.1852 25.9614 72.1852 25.6814V21.7614H80.8252V20.7614H72.1852V18.9014ZM69.8652 15.7614H85.7052V17.7614H69.8652V15.7614ZM72.3252 11.8014C72.3252 10.7214 72.7985 9.92141 73.7452 9.40141C74.7052 8.88141 76.0518 8.62141 77.7852 8.62141C79.5185 8.62141 80.8585 8.88141 81.8052 9.40141C82.7652 9.92141 83.2452 10.7214 83.2452 11.8014C83.2452 12.8681 82.7652 13.6547 81.8052 14.1614C80.8452 14.6681 79.5052 14.9214 77.7852 14.9214C76.0652 14.9214 74.7252 14.6681 73.7652 14.1614C72.8052 13.6547 72.3252 12.8681 72.3252 11.8014ZM74.8852 11.8014C74.8852 12.1881 75.1318 12.4681 75.6252 12.6414C76.1318 12.8014 76.8518 12.8814 77.7852 12.8814C78.7185 12.8814 79.4318 12.8014 79.9252 12.6414C80.4318 12.4681 80.6852 12.1881 80.6852 11.8014C80.6852 11.4014 80.4318 11.1214 79.9252 10.9614C79.4318 10.8014 78.7185 10.7214 77.7852 10.7214C76.8518 10.7214 76.1318 10.8014 75.6252 10.9614C75.1318 11.1214 74.8852 11.4014 74.8852 11.8014ZM99.4891 18.2214H104.949V26.1214H102.429V20.3614H99.4891V18.2214ZM92.9291 18.2214H98.6891V22.9614H95.2091V24.0814H96.7891C97.2557 24.0814 97.7091 24.0547 98.1491 24.0014C98.6024 23.9614 99.0424 23.8747 99.4691 23.7414L99.8491 25.2214C99.3424 25.5147 98.7824 25.7147 98.1691 25.8214C97.5691 25.9414 96.8891 26.0014 96.1291 26.0014H93.8891C93.5824 26.0014 93.3424 25.9347 93.1691 25.8014C93.0091 25.6681 92.9291 25.4614 92.9291 25.1814V21.1614H96.4291V20.1214H92.9291V18.2214ZM102.389 8.42141H104.949V17.4214H102.389V8.42141ZM90.9091 13.0214C90.9091 12.4614 91.0157 11.9414 91.2291 11.4614C91.4557 10.9681 91.7757 10.5414 92.1891 10.1814C92.6024 9.82141 93.1024 9.54141 93.6891 9.34141C94.2757 9.14141 94.9424 9.04141 95.6891 9.04141C96.4224 9.04141 97.0824 9.14141 97.6691 9.34141C98.2557 9.54141 98.7491 9.82141 99.1491 10.1814C99.5624 10.5414 99.8757 10.9681 100.089 11.4614C100.302 11.9414 100.409 12.4614 100.409 13.0214C100.409 13.5814 100.302 14.1081 100.089 14.6014C99.8757 15.0814 99.5624 15.5014 99.1491 15.8614C98.7491 16.2214 98.2557 16.5014 97.6691 16.7014C97.0824 16.9014 96.4224 17.0014 95.6891 17.0014C94.9424 17.0014 94.2757 16.9014 93.6891 16.7014C93.1024 16.5014 92.6024 16.2214 92.1891 15.8614C91.7757 15.5014 91.4557 15.0814 91.2291 14.6014C91.0157 14.1081 90.9091 13.5814 90.9091 13.0214ZM93.4691 13.0214C93.4691 13.5814 93.6691 14.0347 94.0691 14.3814C94.4691 14.7281 95.0091 14.9014 95.6891 14.9014C96.3691 14.9014 96.9024 14.7281 97.2891 14.3814C97.6891 14.0347 97.8891 13.5814 97.8891 13.0214C97.8891 12.4614 97.6891 12.0081 97.2891 11.6614C96.9024 11.3147 96.3691 11.1414 95.6891 11.1414C95.0091 11.1414 94.4691 11.3147 94.0691 11.6614C93.6691 12.0081 93.4691 12.4614 93.4691 13.0214ZM112.816 15.5814H115.376V21.3214H123.216V23.5414H107.376V21.3214H112.816V15.5814ZM109.456 9.84141H120.856V12.1214C120.856 13.3081 120.796 14.5147 120.676 15.7414C120.569 16.9681 120.409 18.1081 120.196 19.1614L117.776 18.8414C117.963 17.8414 118.096 16.8414 118.176 15.8414C118.256 14.8281 118.296 13.8547 118.296 12.9214V12.0614H109.456V9.84141ZM128.08 21.3814H143.92V23.6014H128.08V21.3814ZM134.7 9.46141H137.3V10.6814C137.3 11.5614 137.447 12.3347 137.74 13.0014C138.047 13.6547 138.447 14.2214 138.94 14.7014C139.447 15.1814 140.033 15.5881 140.7 15.9214C141.367 16.2414 142.067 16.5214 142.8 16.7614L141.84 18.8414C141.213 18.6814 140.593 18.4614 139.98 18.1814C139.38 17.9014 138.813 17.5747 138.28 17.2014C137.76 16.8281 137.3 16.4214 136.9 15.9814C136.5 15.5281 136.2 15.0614 136 14.5814C135.813 15.0614 135.52 15.5281 135.12 15.9814C134.72 16.4347 134.26 16.8547 133.74 17.2414C133.22 17.6147 132.653 17.9481 132.04 18.2414C131.427 18.5347 130.807 18.7614 130.18 18.9214L129.22 16.8414C129.94 16.6147 130.633 16.3347 131.3 16.0014C131.967 15.6547 132.547 15.2414 133.04 14.7614C133.547 14.2681 133.947 13.6881 134.24 13.0214C134.547 12.3547 134.7 11.5814 134.7 10.7014V9.46141ZM146.747 13.1014H149.287V16.6814C149.287 17.1481 149.287 17.6014 149.287 18.0414C149.3 18.4814 149.34 18.8414 149.407 19.1214H151.087C151.127 18.8414 151.154 18.4814 151.167 18.0414C151.18 17.6014 151.187 17.1481 151.187 16.6814V13.1014H153.727V16.2014C153.727 16.8147 153.674 17.3881 153.567 17.9214C153.46 18.4414 153.32 18.8414 153.147 19.1214C153.854 19.1081 154.5 19.0614 155.087 18.9814C155.687 18.8881 156.22 18.7281 156.687 18.5014V8.42141H159.247V25.7014H156.687V20.3014C156.047 20.6881 155.314 20.9481 154.487 21.0814C153.674 21.2147 152.794 21.2881 151.847 21.3014H145.367V19.1214H147.347C147.16 18.8414 147.014 18.4414 146.907 17.9214C146.8 17.3881 146.747 16.8147 146.747 16.2014V13.1014ZM145.667 10.0214H154.807V12.2214H145.667V10.0214ZM161.694 21.3814H177.534V23.6014H161.694V21.3814ZM163.974 9.80141H175.254V12.0214H166.534V16.0414H175.454V18.2614H164.934C164.627 18.2614 164.387 18.1947 164.214 18.0614C164.054 17.9281 163.974 17.7214 163.974 17.4414V9.80141ZM183.538 9.48141H192.338V12.5614C192.338 13.5481 192.251 14.5081 192.078 15.4414C191.918 16.3747 191.591 17.2414 191.098 18.0414C191.738 18.0281 192.325 17.9814 192.858 17.9014C193.405 17.8214 193.898 17.6814 194.338 17.4814V8.42141H196.898V25.7014H194.338V19.3014C193.698 19.6881 192.945 19.9481 192.078 20.0814C191.225 20.2014 190.325 20.2681 189.378 20.2814V25.4014H186.818V20.2814H182.518V18.0614H189.018C189.218 17.5814 189.371 17.0747 189.478 16.5414C189.585 15.9947 189.665 15.4614 189.718 14.9414C189.438 15.2614 189.011 15.4947 188.438 15.6414C187.865 15.7747 187.171 15.8414 186.358 15.8414H183.298V13.7414H187.218C187.698 13.7414 188.165 13.7214 188.618 13.6814C189.085 13.6281 189.478 13.5347 189.798 13.4014V11.6814H183.538V9.48141ZM201.225 9.82141H213.005V12.0214H208.405C208.432 12.6614 208.585 13.2481 208.865 13.7814C209.145 14.3014 209.518 14.7747 209.985 15.2014C210.452 15.6147 210.998 15.9747 211.625 16.2814C212.265 16.5881 212.958 16.8414 213.705 17.0414L212.825 19.1614C212.225 19.0147 211.625 18.8147 211.025 18.5614C210.438 18.3081 209.885 18.0147 209.365 17.6814C208.858 17.3347 208.405 16.9547 208.005 16.5414C207.618 16.1281 207.325 15.6881 207.125 15.2214C206.938 15.6881 206.645 16.1281 206.245 16.5414C205.858 16.9547 205.398 17.3347 204.865 17.6814C204.345 18.0147 203.785 18.3147 203.185 18.5814C202.585 18.8347 201.998 19.0347 201.425 19.1814L200.545 17.0614C201.265 16.8614 201.938 16.6081 202.565 16.3014C203.192 15.9947 203.738 15.6347 204.205 15.2214C204.685 14.7947 205.065 14.3147 205.345 13.7814C205.625 13.2481 205.778 12.6614 205.805 12.0214H201.225V9.82141ZM199.185 21.4414H215.045V23.6214H199.185V21.4414ZM216.012 16.7414H231.852V18.6614H216.012V16.7414ZM218.452 8.98141H229.412V13.2014H221.012V14.1014H229.732V15.8014H219.412C219.105 15.8014 218.865 15.7414 218.692 15.6214C218.532 15.4881 218.452 15.2814 218.452 15.0014V11.6014H226.852V10.7414H218.452V8.98141ZM218.332 19.6414H229.532V23.8814H220.892V24.8014H229.972V26.5214H219.292C218.985 26.5214 218.745 26.4547 218.572 26.3214C218.412 26.2014 218.332 26.0014 218.332 25.7214V22.2614H226.972V21.4014H218.332V19.6414ZM239.036 9.14141H250.256V11.2414H246.036C246.129 11.6681 246.316 12.0481 246.596 12.3814C246.889 12.7014 247.249 12.9814 247.676 13.2214C248.103 13.4481 248.589 13.6414 249.136 13.8014C249.696 13.9481 250.303 14.0614 250.956 14.1414L250.396 16.2214C249.769 16.1681 249.156 16.0681 248.556 15.9214C247.956 15.7614 247.396 15.5681 246.876 15.3414C246.369 15.1014 245.916 14.8214 245.516 14.5014C245.129 14.1681 244.836 13.8014 244.636 13.4014C244.423 13.8014 244.123 14.1681 243.736 14.5014C243.349 14.8214 242.903 15.1014 242.396 15.3414C241.889 15.5681 241.336 15.7614 240.736 15.9214C240.136 16.0681 239.523 16.1747 238.896 16.2414L238.336 14.1614C238.976 14.0814 239.569 13.9681 240.116 13.8214C240.676 13.6614 241.169 13.4681 241.596 13.2414C242.023 13.0014 242.376 12.7214 242.656 12.4014C242.936 12.0681 243.129 11.6814 243.236 11.2414H239.036V9.14141ZM236.716 17.1014H252.556V19.1814H246.156V22.1014H243.596V19.1814H236.716V17.1014ZM238.956 20.7014H241.516V23.6814H250.476V25.8614H239.916C239.609 25.8614 239.369 25.7947 239.196 25.6614C239.036 25.5281 238.956 25.3214 238.956 25.0414V20.7014ZM265.343 8.42141H267.903V25.7014H265.343V8.42141ZM254.443 9.86141H256.943V13.2814H260.363V9.86141H262.823V21.3014H255.423C254.77 21.3014 254.443 21.0281 254.443 20.4814V9.86141ZM256.943 15.4214V19.1214H260.363V15.4214H256.943ZM278.87 8.72141H281.29V14.5014H282.77V8.42141H285.21V25.7014H282.77V16.7214H281.29V25.2014H278.87V8.72141ZM270.21 13.0014H278.35V15.1414H276.83C277.177 15.4481 277.457 15.8214 277.67 16.2614C277.883 16.7014 277.99 17.1814 277.99 17.7014C277.99 18.2614 277.897 18.7814 277.71 19.2614C277.537 19.7414 277.283 20.1614 276.95 20.5214C276.63 20.8681 276.243 21.1414 275.79 21.3414C275.337 21.5281 274.837 21.6214 274.29 21.6214C273.743 21.6214 273.243 21.5281 272.79 21.3414C272.337 21.1414 271.943 20.8681 271.61 20.5214C271.29 20.1614 271.037 19.7414 270.85 19.2614C270.677 18.7814 270.59 18.2614 270.59 17.7014C270.59 17.1814 270.69 16.7014 270.89 16.2614C271.103 15.8214 271.383 15.4481 271.73 15.1414H270.21V13.0014ZM271.85 9.58141H276.73V11.7614H271.85V9.58141ZM274.29 15.8014C273.89 15.8014 273.563 15.9747 273.31 16.3214C273.057 16.6547 272.93 17.1147 272.93 17.7014C272.93 18.2881 273.057 18.7547 273.31 19.1014C273.563 19.4347 273.89 19.6014 274.29 19.6014C274.69 19.6014 275.017 19.4347 275.27 19.1014C275.523 18.7547 275.65 18.2881 275.65 17.7014C275.65 17.1147 275.523 16.6547 275.27 16.3214C275.017 15.9747 274.69 15.8014 274.29 15.8014ZM289.417 9.56141H291.977V11.9414H298.137V9.56141H300.697V18.5214H296.337V21.5214H302.977V23.7414H287.137V21.5214H293.777V18.5214H290.377C290.07 18.5214 289.83 18.4614 289.657 18.3414C289.497 18.2081 289.417 18.0014 289.417 17.7214V9.56141ZM291.977 14.0414V16.3414H298.137V14.0414H291.977ZM312.684 8.72141H315.084V25.2014H312.684V15.2414H310.484V13.0214H312.684V8.72141ZM316.384 8.42141H318.824V25.7014H316.384V8.42141ZM306.644 9.80141H309.144V12.5414C309.144 13.3014 309.184 14.0014 309.264 14.6414C309.357 15.2681 309.517 15.8481 309.744 16.3814C309.984 16.9014 310.311 17.3881 310.724 17.8414C311.137 18.2814 311.671 18.7014 312.324 19.1014L310.924 21.0214C310.551 20.8081 310.197 20.5614 309.864 20.2814C309.544 19.9881 309.251 19.6881 308.984 19.3814C308.731 19.0747 308.511 18.7681 308.324 18.4614C308.151 18.1547 308.031 17.8681 307.964 17.6014C307.897 17.9081 307.771 18.2414 307.584 18.6014C307.411 18.9481 307.184 19.2947 306.904 19.6414C306.637 19.9747 306.331 20.2947 305.984 20.6014C305.637 20.9081 305.264 21.1747 304.864 21.4014L303.484 19.5414C304.124 19.1147 304.644 18.6614 305.044 18.1814C305.457 17.6881 305.784 17.1614 306.024 16.6014C306.264 16.0414 306.424 15.4347 306.504 14.7814C306.597 14.1281 306.644 13.4214 306.644 12.6614V9.80141ZM322.811 13.8814C322.811 13.1747 322.951 12.5414 323.231 11.9814C323.511 11.4081 323.904 10.9281 324.411 10.5414C324.918 10.1414 325.531 9.83474 326.251 9.62141C326.984 9.40807 327.791 9.30141 328.671 9.30141C329.551 9.30141 330.351 9.40807 331.071 9.62141C331.804 9.83474 332.424 10.1414 332.931 10.5414C333.438 10.9281 333.831 11.4081 334.111 11.9814C334.391 12.5414 334.531 13.1747 334.531 13.8814C334.531 14.5881 334.391 15.2214 334.111 15.7814C333.831 16.3414 333.438 16.8147 332.931 17.2014C332.424 17.5881 331.804 17.8881 331.071 18.1014C330.351 18.3014 329.551 18.4014 328.671 18.4014C327.791 18.4014 326.984 18.3014 326.251 18.1014C325.531 17.8881 324.918 17.5881 324.411 17.2014C323.904 16.8147 323.511 16.3414 323.231 15.7814C322.951 15.2214 322.811 14.5881 322.811 13.8814ZM320.751 21.4214H324.351V18.8614H326.891V21.4214H330.451V18.8614H332.971V21.4214H336.591V23.6414H320.751V21.4214ZM325.371 13.8814C325.371 14.6281 325.671 15.2147 326.271 15.6414C326.884 16.0547 327.684 16.2614 328.671 16.2614C329.658 16.2614 330.451 16.0547 331.051 15.6414C331.664 15.2147 331.971 14.6281 331.971 13.8814C331.971 13.1347 331.664 12.5481 331.051 12.1214C330.451 11.6947 329.658 11.4814 328.671 11.4814C327.684 11.4814 326.884 11.6947 326.271 12.1214C325.671 12.5481 325.371 13.1347 325.371 13.8814ZM338.178 9.84141H340.798L340.298 18.8414H338.698L338.178 9.84141ZM337.938 20.3814H341.018V23.4414H337.938V20.3814Z" fill="black"/>
<path d="M28.1296 96.2981C31.0284 81.049 45.7402 71.0371 60.9893 73.9359L121.964 85.5269C137.213 88.4257 147.225 103.138 144.326 118.387L140.4 139.043C137.501 154.292 122.789 164.304 107.54 161.405L46.5652 149.814C31.3161 146.915 21.3042 132.204 24.2029 116.954L28.1296 96.2981Z" fill="#FF8047"/>
<path fill-rule="evenodd" clip-rule="evenodd" d="M45.2578 122.365L55.4879 124.309L55.0189 126.776L60.1343 127.749L59.6956 130.057L102.575 138.208L103.014 135.899L108.128 136.871L108.597 134.405L118.827 136.35L116.882 146.58L111.768 145.608L111.299 148.074L106.183 147.101L105.744 149.41L52.6351 139.314L53.0738 137.006L47.9595 136.034L48.4285 133.567L43.3131 132.595L45.2578 122.365Z" fill="black"/>
<path d="M39.2341 97.2203C40.8706 88.6116 49.176 82.9594 57.7848 84.5959L121.034 96.6194C129.643 98.2559 135.295 106.561 133.659 115.17C132.022 123.779 123.717 129.431 115.108 127.794L51.8586 115.771C43.2498 114.135 37.5977 105.829 39.2341 97.2203Z" fill="black"/>
<path d="M60.3786 92.5865L52.0917 100.742L56.3342 101.106L53.7334 108.63L63.0441 98.7523L59.2113 98.7269L60.3786 92.5865Z" fill="white"/>
<path d="M118.486 103.632L110.199 111.788L114.442 112.151L111.841 119.675L121.151 109.798L117.319 109.773L118.486 103.632Z" fill="white"/>
</svg>
