<svg width="108" height="81" viewBox="0 0 108 81" fill="none" xmlns="http://www.w3.org/2000/svg">
<g id="&#236;&#186;&#144;&#236;&#138;&#164;&#237;&#141;&#188;&#236;&#186;&#144;&#235;&#166;&#173;&#237;&#132;&#176;_&#237;&#129;&#172;&#235;&#166;&#188;">
<path id="Subtract" fill-rule="evenodd" clip-rule="evenodd" d="M5.16021 41.7485C2.62097 29.3831 10.5867 17.3004 22.9521 14.7612L72.3964 4.6078C84.7619 2.06855 96.8445 10.0343 99.3838 22.3997L102.823 39.1499C105.363 51.5154 97.3969 63.598 85.0315 66.1373L35.5872 76.2906C23.2218 78.8299 11.1391 70.8642 8.59986 58.4987L5.16021 41.7485ZM77.4716 45.5051L85.7672 43.8016L87.4706 52.0971L83.3231 52.9488L83.7338 54.9487L79.5853 55.8006L79.9697 57.6723L36.9037 66.5159L36.5193 64.6439L32.372 65.4956L31.9615 63.4963L27.8134 64.3481L26.1099 56.0526L34.4054 54.3491L34.816 56.3484L38.964 55.4966L39.3485 57.3686L74.1192 50.2284L73.7348 48.3567L77.8823 47.505L77.4716 45.5051ZM23.8405 23.7687C16.8597 25.2022 12.3627 32.0234 13.7962 39.0042C15.2297 45.985 22.0508 50.482 29.0317 49.0485L80.3204 38.5163C87.3012 37.0828 91.7981 30.2617 90.3646 23.2809C88.9311 16.3001 82.11 11.8031 75.1292 13.2366L23.8405 23.7687Z" fill="#FFFFD6"/>
<rect id="Rectangle 2977" x="22.1855" y="32.9097" width="8.56317" height="8.56317" transform="rotate(-11.6044 22.1855 32.9097)" fill="white"/>
<path id="Vector 3379" d="M76.263 21.3167L72.8348 27.1197L78.178 30.642L82.1505 29.8263L76.7658 26.3124L80.2356 20.501L76.263 21.3167Z" fill="white"/>
</g>
</svg>
