<svg width="42" height="33" viewBox="0 0 42 33" fill="none" xmlns="http://www.w3.org/2000/svg">
<g id="&#236;&#186;&#144;&#236;&#138;&#164;&#237;&#141;&#188;&#236;&#186;&#144;&#235;&#166;&#173;&#237;&#132;&#176;_&#235;&#158;&#156;&#235;&#148;&#169;_&#236;&#185;&#180;&#237;&#130;&#164;">
<path id="Subtract" fill-rule="evenodd" clip-rule="evenodd" d="M2.78712 18.3854C1.57576 13.8568 4.26495 9.20354 8.79361 7.99217L26.9018 3.14842C31.4305 1.93706 36.0837 4.62625 37.2951 9.15491L38.936 15.2894C40.1473 19.8181 37.4581 24.4713 32.9295 25.6826L14.8213 30.5264C10.2926 31.7378 5.6394 29.0486 4.42804 24.5199L2.78712 18.3854ZM10.866 23.2306L13.9041 22.4179L14.1 23.1504L15.6189 22.7441L15.8021 23.4291L28.5366 20.0228L28.3534 19.3381L29.8722 18.9319L29.6763 18.1995L32.7144 17.3868L33.527 20.4249L32.0083 20.8312L32.2042 21.5636L30.6849 21.97L30.868 22.6546L15.0958 26.8735L14.9125 26.1885L13.3935 26.5949L13.1975 25.8624L11.6786 26.2687L10.866 23.2306ZM9.31959 11.3116C6.76297 11.9954 5.24481 14.6224 5.92868 17.179C6.61255 19.7356 9.23947 21.2537 11.7961 20.5699L30.5798 15.5454C33.1364 14.8616 34.6546 12.2346 33.9707 9.67803C33.2868 7.12141 30.6599 5.60325 28.1033 6.28712L9.31959 11.3116Z" fill="#343628"/>
<g id="Group 38">
<rect id="Rectangle 2977" x="8.90625" y="14.7373" width="3.18003" height="3.18003" transform="rotate(-14.9754 8.90625 14.7373)" fill="white"/>
<rect id="Rectangle 2978" x="27.0996" y="9.87109" width="3.18003" height="3.18003" transform="rotate(-14.9754 27.0996 9.87109)" fill="white"/>
</g>
</g>
</svg>
