<svg width="120" height="91" viewBox="0 0 120 91" fill="none" xmlns="http://www.w3.org/2000/svg">
<g id="&#236;&#186;&#144;&#236;&#138;&#164;&#237;&#141;&#188;&#236;&#186;&#144;&#235;&#166;&#173;&#237;&#132;&#176;_&#236;&#152;&#164;&#235;&#160;&#140;&#236;&#167;&#128;">
<g id="Group 116">
<path id="Vector 3379" d="M38.149 22.8443L30.5431 30.3295L34.437 30.6634L32.0499 37.5691L40.5955 28.5035L37.0777 28.4802L38.149 22.8443Z" fill="white"/>
<path id="Vector 3380" d="M91.4811 32.983L83.8751 40.4682L87.769 40.8021L85.3819 47.7078L93.9275 38.6422L90.4097 38.6189L91.4811 32.983Z" fill="white"/>
</g>
<g id="Group 115">
<path id="Subtract" fill-rule="evenodd" clip-rule="evenodd" d="M8.52239 25.9692C11.183 11.9731 24.686 2.7838 38.6821 5.44441L94.6468 16.0831C108.643 18.7437 117.832 32.2466 115.172 46.2428L111.568 65.2019C108.907 79.198 95.404 88.3872 81.4078 85.7266L25.4431 75.088C11.447 72.4274 2.25774 58.9244 4.91834 44.9283L8.52239 25.9692ZM24.243 49.8954L33.6324 51.6803L33.2021 53.944L37.8971 54.8365L37.4943 56.9552L76.8506 64.4367L77.2534 62.3176L81.9473 63.2099L82.3776 60.9465L91.767 62.7314L89.9821 72.1209L85.2882 71.2286L84.858 73.492L80.1622 72.5993L79.7593 74.7184L31.0141 65.4522L31.4169 63.3334L26.7227 62.4411L27.153 60.1773L22.4581 59.2848L24.243 49.8954ZM35.7409 15.2276C27.8396 13.7255 20.2166 18.9132 18.7145 26.8146C17.2125 34.716 22.4002 42.339 30.3016 43.841L88.354 54.8765C96.2554 56.3786 103.878 51.1909 105.38 43.2895C106.882 35.3881 101.695 27.7651 93.7933 26.2631L35.7409 15.2276Z" fill="#FF8047"/>
</g>
</g>
</svg>
