<svg width="63" height="56" viewBox="0 0 63 56" fill="none" xmlns="http://www.w3.org/2000/svg">
<g id="&#236;&#186;&#144;&#236;&#138;&#164;&#237;&#141;&#188;&#236;&#186;&#144;&#235;&#166;&#173;&#237;&#132;&#176;_&#235;&#158;&#156;&#235;&#148;&#169;_&#237;&#153;&#148;&#236;&#157;&#180;&#237;&#138;&#184;">
<g id="Group 116">
<path id="Vector 3379" d="M16.5673 26.2419L15.9654 31.3651L17.5343 30.3126L18.7243 33.638L19.2021 27.6347L17.869 28.6905L16.5673 26.2419Z" fill="white"/>
<path id="Vector 3380" d="M39.7391 13.9235L39.1373 19.0467L40.7061 17.9942L41.8961 21.3197L42.3739 15.3163L41.0408 16.3721L39.7391 13.9235Z" fill="white"/>
</g>
<g id="Group 115">
<path id="Subtract" fill-rule="evenodd" clip-rule="evenodd" d="M6.34538 36.3855C3.11275 30.3046 5.42175 22.7544 11.5027 19.5218L35.8178 6.59587C41.8987 3.36324 49.4488 5.67224 52.6815 11.7532L57.0604 19.9904C60.293 26.0713 57.984 33.6214 51.9031 36.854L27.588 49.78C21.507 53.0126 13.9569 50.7036 10.7243 44.6227L6.34538 36.3855ZM19.5117 40.6475L23.5912 38.4788L24.1138 39.4619L26.1537 38.3775L26.643 39.2981L43.7421 30.2082L43.2527 29.2876L45.2922 28.2034L44.7697 27.2204L48.8491 25.0518L51.0178 29.1312L48.9783 30.2154L49.5008 31.1984L47.4608 32.2829L47.9502 33.2035L26.7718 44.462L26.2824 43.5414L24.2428 44.6256L23.7202 43.6425L21.6804 44.7269L19.5117 40.6475ZM13.3545 24.0999C9.92161 25.9249 8.61809 30.1872 10.443 33.6202C12.268 37.0531 16.5304 38.3566 19.9633 36.5317L45.1854 23.1236C48.6183 21.2986 49.9219 17.0363 48.0969 13.6033C46.2719 10.1704 42.0096 8.86687 38.5766 10.6918L13.3545 24.0999Z" fill="white"/>
</g>
</g>
</svg>
